<svg xmlns="http://www.w3.org/2000/svg" width="18" height="18" viewBox="0 0 18 18">
  <g id="Group_27507" data-name="Group 27507" transform="translate(-1195 -182)">
    <g id="chat" transform="translate(1194 181)" fill="#fff">
      <path d="M 5.090818881988525 18.50000190734863 C 5.038699150085449 18.50000190734863 4.98685884475708 18.48700141906738 4.940898895263672 18.46241188049316 C 4.837149143218994 18.40692138671875 4.77272891998291 18.29936218261719 4.77272891998291 18.18169212341309 L 4.77272891998291 15.64534187316895 L 4.77272891998291 15.23770141601562 L 4.373438835144043 15.15559101104736 C 2.710598945617676 14.81363105773926 1.502139091491699 13.33329105377197 1.499999046325684 11.63565158843994 L 1.499999046325684 5.09088134765625 C 1.502369046211243 3.113501310348511 3.113518953323364 1.502361416816711 5.091508865356445 1.500001430511475 L 14.90908908843994 1.500001430511475 C 16.88648986816406 1.502361416816711 18.49763870239258 3.113491296768188 18.5 5.09148120880127 L 18.5 11.63628101348877 C 18.49763870239258 13.61367130279541 16.88648986816406 15.2248010635376 14.90848922729492 15.2271614074707 L 10.24544906616211 15.2271614074707 L 10.09399890899658 15.2271614074707 L 9.967999458312988 15.31120109558105 L 5.26754903793335 18.44645118713379 C 5.215029239654541 18.48149108886719 5.153929233551025 18.50000190734863 5.090818881988525 18.50000190734863 Z" stroke="none"/>
      <path d="M 5.092108726501465 2.000001907348633 C 3.389158248901367 2.002040863037109 2.002038955688477 3.389141082763672 1.999998092651367 5.09088134765625 L 1.999998092651367 11.6350212097168 C 2.001838684082031 13.09676170349121 3.042379379272461 14.37140083312988 4.474159240722656 14.66584205627441 L 5.27272891998291 14.8300609588623 L 5.27272891998291 17.84197425842285 L 9.942539215087891 14.7271614074707 L 14.90788841247559 14.7271614074707 C 16.61084938049316 14.72512149810791 17.99795913696289 13.33802127838135 18 11.63628101348877 L 18 5.092081069946289 C 17.99795913696289 3.389141082763672 16.61084938049316 2.002040863037109 14.90908908843994 2.000001907348633 L 5.092108726501465 2.000001907348633 M 5.090909004211426 1.000001907348633 L 14.90908908843994 1.000001907348633 C 17.16731834411621 1.002700805664062 18.99729919433594 2.832672119140625 19 5.09088134765625 L 19 11.63628101348877 C 18.99729919433594 13.89449119567871 17.16731834411621 15.72446155548096 14.90908908843994 15.7271614074707 L 10.24544906616211 15.7271614074707 L 5.544999122619629 18.86241149902344 C 5.293928146362305 19.02992057800293 4.971037864685059 19.04560089111328 4.705029487609863 18.90328216552734 C 4.438889503479004 18.76093101501465 4.27272891998291 18.4836311340332 4.27272891998291 18.18169212341309 L 4.27272891998291 15.64534187316895 C 2.369298934936523 15.2539119720459 1.002449035644531 13.57953071594238 0.9999980926513672 11.63628101348877 L 0.9999980926513672 5.09088134765625 C 1.002708435058594 2.832672119140625 2.832679748535156 1.002700805664062 5.090909004211426 1.000001907348633 Z" stroke="none" fill="#ccc"/>
    </g>
    <g id="Union_732" data-name="Union 732" transform="translate(-5422.501 -6894.676)" fill="#fff">
      <path d="M 6630.40087890625 7086.423828125 L 6622.6015625 7086.423828125 C 6622.544921875 7086.423828125 6622.50048828125 7086.37939453125 6622.50048828125 7086.32275390625 C 6622.50048828125 7086.26806640625 6622.5458984375 7086.2236328125 6622.6015625 7086.2236328125 L 6630.40087890625 7086.2236328125 C 6630.45654296875 7086.2236328125 6630.501953125 7086.26806640625 6630.501953125 7086.32275390625 C 6630.501953125 7086.37939453125 6630.45751953125 7086.423828125 6630.40087890625 7086.423828125 Z M 6630.40087890625 7083.99609375 L 6622.6015625 7083.99609375 C 6622.5458984375 7083.99609375 6622.50048828125 7083.95166015625 6622.50048828125 7083.89697265625 C 6622.50048828125 7083.84228515625 6622.5458984375 7083.79736328125 6622.6015625 7083.79736328125 L 6630.40087890625 7083.79736328125 C 6630.45654296875 7083.79736328125 6630.501953125 7083.84228515625 6630.501953125 7083.89697265625 C 6630.501953125 7083.95166015625 6630.45654296875 7083.99609375 6630.40087890625 7083.99609375 Z M 6630.40087890625 7081.57568359375 L 6622.6015625 7081.57568359375 C 6622.5458984375 7081.57568359375 6622.50048828125 7081.5302734375 6622.50048828125 7081.474609375 C 6622.50048828125 7081.419921875 6622.5458984375 7081.375 6622.6015625 7081.375 L 6630.40087890625 7081.375 C 6630.45654296875 7081.375 6630.501953125 7081.419921875 6630.501953125 7081.474609375 C 6630.501953125 7081.5302734375 6630.45654296875 7081.57568359375 6630.40087890625 7081.57568359375 Z" stroke="none"/>
      <path d="M 6630.40087890625 7086.923828125 L 6622.6015625 7086.923828125 C 6622.26904296875 7086.923828125 6622.00048828125 7086.6552734375 6622.00048828125 7086.32275390625 C 6622.00048828125 7085.9921875 6622.26904296875 7085.7236328125 6622.6015625 7085.7236328125 L 6630.40087890625 7085.7236328125 C 6630.7333984375 7085.7236328125 6631.001953125 7085.9921875 6631.001953125 7086.32275390625 C 6631.001953125 7086.6552734375 6630.7333984375 7086.923828125 6630.40087890625 7086.923828125 Z M 6630.40087890625 7084.49609375 L 6622.6015625 7084.49609375 C 6622.26904296875 7084.49609375 6622.00048828125 7084.2275390625 6622.00048828125 7083.89697265625 C 6622.00048828125 7083.56591796875 6622.26904296875 7083.29736328125 6622.6015625 7083.29736328125 L 6630.40087890625 7083.29736328125 C 6630.7333984375 7083.29736328125 6631.001953125 7083.56591796875 6631.001953125 7083.89697265625 C 6631.001953125 7084.2275390625 6630.7333984375 7084.49609375 6630.40087890625 7084.49609375 Z M 6630.40087890625 7082.07568359375 L 6622.6015625 7082.07568359375 C 6622.26904296875 7082.07568359375 6622.00048828125 7081.80517578125 6622.00048828125 7081.474609375 C 6622.00048828125 7081.1435546875 6622.26904296875 7080.875 6622.6015625 7080.875 L 6630.40087890625 7080.875 C 6630.7333984375 7080.875 6631.001953125 7081.1435546875 6631.001953125 7081.474609375 C 6631.001953125 7081.80517578125 6630.7333984375 7082.07568359375 6630.40087890625 7082.07568359375 Z" stroke="none" fill="#ccc"/>
    </g>
  </g>
</svg>
