<svg xmlns="http://www.w3.org/2000/svg" width="56" height="56" viewBox="0 0 56 56">
  <g id="Group_27137" data-name="Group 27137" transform="translate(-145 -484)">
    <circle id="Ellipse_230" data-name="Ellipse 230" cx="28" cy="28" r="28" transform="translate(145 484)" fill="#fff"/>
    <path id="user" d="M56,28A28,28,0,1,0,9.088,48.626l-.026.023.908.766c.059.05.123.091.182.139.483.4.983.78,1.492,1.147.165.119.33.238.5.354q.816.562,1.672,1.067c.124.073.249.145.375.216.624.355,1.262.69,1.914,1l.145.065a27.748,27.748,0,0,0,6.772,2.143l.187.034c.737.127,1.482.229,2.237.3.092.008.183.013.276.021.751.062,1.511.1,2.281.1s1.515-.04,2.262-.1c.095-.008.189-.013.284-.021q1.123-.1,2.218-.292l.19-.035a27.747,27.747,0,0,0,6.676-2.092c.077-.036.156-.069.233-.106q.942-.443,1.844-.953.225-.127.447-.258c.548-.323,1.086-.66,1.61-1.018.188-.128.373-.264.559-.4.447-.322.886-.654,1.312-1,.095-.076.2-.143.289-.221l.932-.778-.027-.023A27.928,27.928,0,0,0,56,28ZM2.036,28A25.964,25.964,0,1,1,45.218,47.41a7.631,7.631,0,0,0-.909-.547l-8.621-4.31a2.257,2.257,0,0,1-1.254-2.029V37.513c.2-.246.41-.525.628-.832a20.749,20.749,0,0,0,2.664-5.216,3.7,3.7,0,0,0,2.123-3.349V24.507a3.7,3.7,0,0,0-.9-2.412V17.343a8.211,8.211,0,0,0-1.917-5.971C35.152,9.23,32.114,8.145,28,8.145s-7.152,1.084-9.028,3.226a8.213,8.213,0,0,0-1.917,5.971v4.752a3.71,3.71,0,0,0-.9,2.412v3.609a3.7,3.7,0,0,0,1.364,2.872,19.132,19.132,0,0,0,3.149,6.505v2.947a2.271,2.271,0,0,1-1.183,1.994l-8.051,4.391a7.358,7.358,0,0,0-.766.485A25.9,25.9,0,0,1,2.036,28Z" transform="translate(145 484)" fill="#adadad"/>
  </g>
</svg>
