<svg id="grant-msg-icn" xmlns="http://www.w3.org/2000/svg" width="74" height="74" viewBox="0 0 74 74">
  <path id="Path_86828" data-name="Path 86828" d="M42.7,3.7V26.517a3.751,3.751,0,0,1-3.7,3.7H19.425L4.933,37.771V30.217H3.7a3.751,3.751,0,0,1-3.7-3.7V3.7A3.751,3.751,0,0,1,3.7,0H39.158A3.621,3.621,0,0,1,42.7,3.7Z" fill="#132570"/>
  <g id="Group_27570" data-name="Group 27570" transform="translate(6.012 11.1)">
    <circle id="Ellipse_374" data-name="Ellipse 374" cx="4.008" cy="4.008" r="4.008" fill="#fff"/>
    <circle id="Ellipse_375" data-name="Ellipse 375" cx="4.008" cy="4.008" r="4.008" transform="translate(11.408)" fill="#fff"/>
    <circle id="Ellipse_376" data-name="Ellipse 376" cx="4.008" cy="4.008" r="4.008" transform="translate(22.817)" fill="#fff"/>
  </g>
  <path id="Path_86829" data-name="Path 86829" d="M216.533,66.633V89.3a3.751,3.751,0,0,0,3.7,3.7h19.733l14.492,7.554V93h1.079a3.751,3.751,0,0,0,3.7-3.7V66.633a3.751,3.751,0,0,0-3.7-3.7H220.079A3.621,3.621,0,0,0,216.533,66.633Z" transform="translate(-185.237 -53.837)" fill="#0089ff"/>
  <g id="Group_27571" data-name="Group 27571" transform="translate(37.154 20.196)">
    <circle id="Ellipse_377" data-name="Ellipse 377" cx="4.008" cy="4.008" r="4.008" transform="translate(22.817)" fill="#fff"/>
    <circle id="Ellipse_378" data-name="Ellipse 378" cx="4.008" cy="4.008" r="4.008" transform="translate(11.408)" fill="#fff"/>
    <circle id="Ellipse_379" data-name="Ellipse 379" cx="4.008" cy="4.008" r="4.008" fill="#fff"/>
  </g>
  <path id="Path_86830" data-name="Path 86830" d="M118.437,255.433V278.25a3.751,3.751,0,0,1-3.7,3.7H102.558l-5.55,7.4-5.55-7.554H79.433a3.751,3.751,0,0,1-3.7-3.7V255.433a3.751,3.751,0,0,1,3.7-3.7h35.458A3.621,3.621,0,0,1,118.437,255.433Z" transform="translate(-64.787 -215.35)" fill="#00e2c3"/>
  <g id="Group_27572" data-name="Group 27572" transform="translate(16.958 47.483)">
    <circle id="Ellipse_380" data-name="Ellipse 380" cx="4.008" cy="4.008" r="4.008" transform="translate(22.663)" fill="#fff"/>
    <circle id="Ellipse_381" data-name="Ellipse 381" cx="4.008" cy="4.008" r="4.008" transform="translate(11.408)" fill="#fff"/>
    <circle id="Ellipse_382" data-name="Ellipse 382" cx="4.008" cy="4.008" r="4.008" fill="#fff"/>
  </g>
</svg>
