<svg width="18" height="30" viewBox="0 0 18 30" fill="none" xmlns="http://www.w3.org/2000/svg">
<path d="M14.5385 0H3.46154C1.55077 0 0 1.52727 0 3.40909V26.5909C0 28.4727 1.55077 30 3.46154 30H14.5385C16.4492 30 18 28.4727 18 26.5909V3.40909C18 1.52727 16.4492 0 14.5385 0ZM9 28.6364C7.85077 28.6364 6.92308 27.7227 6.92308 26.5909C6.92308 25.4591 7.85077 24.5455 9 24.5455C10.1492 24.5455 11.0769 25.4591 11.0769 26.5909C11.0769 27.7227 10.1492 28.6364 9 28.6364ZM15.2308 23.1818H2.76923V4.09091H15.2308V23.1818Z" fill="#CCCCCC"/>
</svg>
